<svg width="160" height="156" viewBox="0 0 160 156" fill="none" xmlns="http://www.w3.org/2000/svg">
    <g clip-path="url(#clip0_8_7889)">
    <path d="M101.575 35.0839H58.4615C57.4791 35.0851 56.5372 35.4755 55.8425 36.1694C55.1478 36.8633 54.7569 37.8041 54.7557 38.7855V134.494L54.2616 134.645L43.6853 137.88C43.1841 138.033 42.6427 137.98 42.18 137.735C41.7173 137.489 41.371 137.07 41.2173 136.57L9.75761 33.9266C9.60451 33.4259 9.65669 32.885 9.90269 32.4228C10.1487 31.9605 10.5684 31.6147 11.0695 31.4614L27.3676 26.4767L74.6163 12.0309L90.9143 7.04621C91.1623 6.96996 91.423 6.94332 91.6813 6.9678C91.9397 6.99228 92.1906 7.06742 92.4199 7.18889C92.6491 7.31037 92.8521 7.47581 93.0173 7.67575C93.1825 7.87569 93.3065 8.10619 93.3824 8.35407L101.424 34.5904L101.575 35.0839Z" fill="#FAFAFA"/>
    <path d="M110.982 34.5903L101.29 2.9695C101.129 2.44264 100.866 1.95268 100.515 1.52762C100.164 1.10255 99.7325 0.750722 99.2454 0.492222C98.7584 0.233723 98.225 0.073621 97.676 0.0210722C97.1269 -0.0314766 96.5729 0.024557 96.0455 0.185965L73.1314 7.1917L25.8852 21.6399L2.97115 28.6481C1.90668 28.9746 1.01539 29.7096 0.492909 30.6918C-0.0295726 31.674 -0.140555 32.8232 0.184327 33.887L33.3091 141.954C33.573 142.813 34.1056 143.564 34.8285 144.099C35.5515 144.633 36.4269 144.922 37.3263 144.923C37.7425 144.923 38.1564 144.86 38.554 144.737L54.2616 139.935L54.7557 139.782V139.267L54.2616 139.417L38.4083 144.266C37.4687 144.552 36.4539 144.454 35.5864 143.994C34.719 143.534 34.0697 142.749 33.781 141.811L0.658769 33.7414C0.515747 33.2767 0.465901 32.7884 0.512081 32.3045C0.558262 31.8205 0.699558 31.3504 0.927889 30.9211C1.15622 30.4918 1.4671 30.1116 1.84272 29.8025C2.21833 29.4933 2.65131 29.2612 3.11687 29.1195L26.031 22.1113L73.2773 7.66549L96.1914 0.657296C96.5445 0.549656 96.9116 0.494772 97.2808 0.494429C98.0731 0.496206 98.8441 0.751353 99.4807 1.2225C100.117 1.69364 100.586 2.35603 100.819 3.11263L110.466 34.5903L110.619 35.0838H111.133L110.982 34.5903Z" fill="#E0E0E0"/>
    <path d="M30.3086 31.542C29.8324 31.5417 29.3689 31.3889 28.986 31.1062C28.6031 30.8234 28.3211 30.4256 28.1812 29.9709L24.999 19.589C24.9135 19.3101 24.8838 19.0171 24.9117 18.7268C24.9396 18.4365 25.0244 18.1545 25.1614 17.8969C25.2984 17.6393 25.4848 17.4112 25.7101 17.2256C25.9354 17.0401 26.195 16.9006 26.4742 16.8153L69.9404 3.52343C70.5042 3.35157 71.1133 3.41018 71.634 3.68641C72.1546 3.96264 72.5443 4.43392 72.7174 4.99681L75.8995 15.3789C76.0715 15.9421 76.0127 16.5504 75.7362 17.0705C75.4597 17.5905 74.9879 17.9797 74.4245 18.1527L30.9582 31.4446C30.7477 31.5091 30.5288 31.5419 30.3086 31.542Z" fill="#A0E86F"/>
    <path d="M46.9778 11.0934C49.7067 11.0934 51.9189 8.88373 51.9189 6.15801C51.9189 3.43229 49.7067 1.22266 46.9778 1.22266C44.249 1.22266 42.0368 3.43229 42.0368 6.15801C42.0368 8.88373 44.249 11.0934 46.9778 11.0934Z" fill="#A0E86F"/>
    <path d="M46.9779 9.28327C48.7059 9.28327 50.1067 7.88406 50.1067 6.15805C50.1067 4.43204 48.7059 3.03284 46.9779 3.03284C45.2498 3.03284 43.849 4.43204 43.849 6.15805C43.849 7.88406 45.2498 9.28327 46.9779 9.28327Z" fill="#FAFAFA"/>
    <path d="M148.883 143.662H65.379C64.8223 143.661 64.2885 143.44 63.8949 143.047C63.5012 142.653 63.2797 142.12 63.2791 141.564V41.6233C63.2797 41.0672 63.5012 40.534 63.8948 40.1408C64.2885 39.7476 64.8223 39.5264 65.379 39.5258H148.883C149.439 39.5264 149.973 39.7476 150.367 40.1408C150.761 40.534 150.982 41.0672 150.983 41.6233V141.564C150.982 142.12 150.761 142.653 150.367 143.047C149.973 143.44 149.439 143.661 148.883 143.662Z" fill="#FAFAFA"/>
    <path d="M110.466 34.5903H58.4615C57.3481 34.5919 56.2808 35.0344 55.4935 35.8208C54.7062 36.6072 54.2632 37.6733 54.2616 38.7854V139.417L54.7557 139.267V38.7854C54.7569 37.804 55.1478 36.8632 55.8425 36.1693C56.5372 35.4754 57.4791 35.0851 58.4615 35.0839H110.619L110.466 34.5903ZM155.8 34.5903H58.4615C57.3481 34.5919 56.2808 35.0344 55.4935 35.8208C54.7062 36.6072 54.2632 37.6733 54.2616 38.7854V151.805C54.2632 152.917 54.7062 153.983 55.4935 154.77C56.2808 155.556 57.3481 155.998 58.4615 156H155.8C156.914 155.998 157.981 155.556 158.768 154.77C159.555 153.983 159.998 152.917 160 151.805V38.7854C159.998 37.6733 159.555 36.6072 158.768 35.8208C157.981 35.0344 156.914 34.5919 155.8 34.5903ZM159.506 151.805C159.505 152.786 159.114 153.727 158.419 154.421C157.724 155.115 156.783 155.505 155.8 155.506H58.4615C57.4791 155.505 56.5372 155.115 55.8425 154.421C55.1478 153.727 54.7569 152.786 54.7557 151.805V38.7854C54.7569 37.804 55.1478 36.8632 55.8425 36.1693C56.5372 35.4754 57.4791 35.0851 58.4615 35.0839H155.8C156.783 35.0851 157.724 35.4754 158.419 36.1693C159.114 36.8632 159.505 37.804 159.506 38.7854V151.805Z" fill="#E0E0E0"/>
    <path d="M129.86 45.4481H84.4021C83.8126 45.4475 83.2474 45.2133 82.8306 44.7969C82.4137 44.3806 82.1793 43.8161 82.1786 43.2272V32.3695C82.1793 31.7806 82.4137 31.2161 82.8306 30.7998C83.2474 30.3834 83.8126 30.1492 84.4021 30.1486H129.86C130.449 30.1492 131.014 30.3834 131.431 30.7998C131.848 31.2161 132.082 31.7806 132.083 32.3695V43.2272C132.082 43.8161 131.848 44.3806 131.431 44.7969C131.014 45.2133 130.449 45.4475 129.86 45.4481Z" fill="#A0E86F"/>
    <path d="M107.131 30.8889C109.86 30.8889 112.072 28.6793 112.072 25.9535C112.072 23.2278 109.86 21.0182 107.131 21.0182C104.402 21.0182 102.19 23.2278 102.19 25.9535C102.19 28.6793 104.402 30.8889 107.131 30.8889Z" fill="#A0E86F"/>
    <path d="M107.131 28.9596C108.793 28.9596 110.14 27.6137 110.14 25.9535C110.14 24.2933 108.793 22.9474 107.131 22.9474C105.469 22.9474 104.121 24.2933 104.121 25.9535C104.121 27.6137 105.469 28.9596 107.131 28.9596Z" fill="#FAFAFA"/>
    </g>
    <defs>
    <clipPath id="clip0_8_7889">
    <rect width="160" height="156" fill="white"/>
    </clipPath>
    </defs>
    </svg>
    