<svg width="25" height="24" viewBox="0 0 25 24" fill="none" xmlns="http://www.w3.org/2000/svg">
    <path fill-rule="evenodd" clip-rule="evenodd" d="M12.1389 12.6188H12.1709C15.0989 12.6188 17.4799 10.2378 17.4799 7.30976C17.4799 4.38176 15.0989 1.99976 12.1709 1.99976C9.24189 1.99976 6.85989 4.38176 6.85989 7.30676C6.84989 10.2268 9.2169 12.6098 12.1389 12.6188ZM8.28789 7.30976C8.28789 5.16876 10.0299 3.42776 12.1709 3.42776C14.3109 3.42776 16.0519 5.16876 16.0519 7.30976C16.0519 9.44976 14.3109 11.1918 12.1709 11.1918H12.1419C10.0099 11.1838 8.28089 9.44376 8.28789 7.30976Z" fill="#9E9E9E"/>
    <path fill-rule="evenodd" clip-rule="evenodd" d="M4.24988 18.1731C4.24988 21.8701 10.2119 21.8701 12.1709 21.8701C15.5699 21.8701 20.0899 21.4891 20.0899 18.1931C20.0899 14.4961 14.1299 14.4961 12.1709 14.4961C8.77088 14.4961 4.24988 14.8771 4.24988 18.1731ZM5.74988 18.1731C5.74988 16.7281 7.90988 15.9961 12.1709 15.9961C16.4309 15.9961 18.5899 16.7351 18.5899 18.1931C18.5899 19.6381 16.4309 20.3701 12.1709 20.3701C7.90988 20.3701 5.74988 19.6311 5.74988 18.1731Z" fill="#9E9E9E"/>
    </svg>
    