<svg width="28" height="28" viewBox="0 0 28 28" fill="none" xmlns="http://www.w3.org/2000/svg">
    <path fill-rule="evenodd" clip-rule="evenodd" d="M14.2313 26.25H14.229C12.9212 26.2489 11.6833 25.6725 10.7442 24.626C10.421 24.2679 10.4502 23.7137 10.8095 23.3917C11.1688 23.0674 11.7218 23.0965 12.045 23.457C12.6493 24.1302 13.4252 24.5 14.2302 24.5H14.2313C15.0398 24.5 15.8192 24.1302 16.4247 23.4559C16.749 23.0977 17.302 23.0685 17.6602 23.3917C18.0195 23.7149 18.0487 24.269 17.7255 24.6272C16.7828 25.6737 15.5427 26.25 14.2313 26.25Z" fill="white"/>
    <mask id="mask0_8_9926" style="mask-type:luminance" maskUnits="userSpaceOnUse" x="3" y="1" width="23" height="21">
    <path fill-rule="evenodd" clip-rule="evenodd" d="M3.50009 1.16669H25.0798V21.406H3.50009V1.16669Z" fill="white"/>
    </mask>
    <g mask="url(#mask0_8_9926)">
    <path fill-rule="evenodd" clip-rule="evenodd" d="M14.2883 2.91669C10.2108 2.91669 7.36877 6.11102 7.36877 8.97752C7.36877 11.403 6.69561 12.5242 6.10061 13.5135C5.62344 14.308 5.24661 14.9357 5.24661 16.2995C5.44144 18.4999 6.89394 19.656 14.2883 19.656C21.6418 19.656 23.1398 18.4485 23.3334 16.2237C23.3299 14.9357 22.9531 14.308 22.4759 13.5135C21.8809 12.5242 21.2078 11.403 21.2078 8.97752C21.2078 6.11102 18.3658 2.91669 14.2883 2.91669ZM14.2883 21.406C8.83294 21.406 3.90261 21.021 3.50011 16.3742C3.49661 14.4515 4.08344 13.4739 4.60144 12.6129C5.12527 11.7402 5.61877 10.9177 5.61877 8.97752C5.61877 5.20569 9.10244 1.16669 14.2883 1.16669C19.4741 1.16669 22.9578 5.20569 22.9578 8.97752C22.9578 10.9177 23.4513 11.7402 23.9751 12.6129C24.4931 13.4739 25.0799 14.4515 25.0799 16.2995C24.6728 21.021 19.7436 21.406 14.2883 21.406Z" fill="white"/>
    </g>
    <circle cx="22" cy="6" r="4" fill="#F75555"/>
    </svg>
    