<svg width="44" height="44" viewBox="0 0 44 44" fill="none"
    xmlns="http://www.w3.org/2000/svg">
    <path d="M22.0201 30.53C19.6901 30.53 17.3601 30.16 15.1501 29.42C14.3101 29.13 13.6701 28.54 13.3901 27.77C13.1001 27 13.2001 26.15 13.6601 25.39L14.8101 23.48C15.0501 23.08 15.2701 22.28 15.2701 21.81V18.92C15.2701 15.2 18.3001 12.17 22.0201 12.17C25.7401 12.17 28.7701 15.2 28.7701 18.92V21.81C28.7701 22.27 28.9901 23.08 29.2301 23.49L30.3701 25.39C30.8001 26.11 30.8801 26.98 30.5901 27.77C30.3001 28.56 29.6701 29.16 28.8801 29.42C26.6801 30.16 24.3501 30.53 22.0201 30.53ZM22.0201 13.67C19.1301 13.67 16.7701 16.02 16.7701 18.92V21.81C16.7701 22.54 16.4701 23.62 16.1001 24.25L14.9501 26.16C14.7301 26.53 14.6701 26.92 14.8001 27.25C14.9201 27.59 15.2201 27.85 15.6301 27.99C19.8101 29.39 24.2401 29.39 28.4201 27.99C28.7801 27.87 29.0601 27.6 29.1901 27.24C29.3201 26.88 29.2901 26.49 29.0901 26.16L27.9401 24.25C27.5601 23.6 27.2701 22.53 27.2701 21.8V18.92C27.2701 16.02 24.9201 13.67 22.0201 13.67Z" fill="url(#paint0_linear_252_8984)"/>
    <path d="M23.8801 13.9401C23.8101 13.9401 23.7401 13.9301 23.6701 13.9101C23.3801 13.8301 23.1001 13.7701 22.8301 13.7301C21.9801 13.6201 21.1601 13.6801 20.3901 13.9101C20.1101 14.0001 19.8101 13.9101 19.6201 13.7001C19.4301 13.4901 19.3701 13.1901 19.4801 12.9201C19.8901 11.8701 20.8901 11.1801 22.0301 11.1801C23.1701 11.1801 24.1701 11.8601 24.5801 12.9201C24.6801 13.1901 24.6301 13.4901 24.4401 13.7001C24.2901 13.8601 24.0801 13.9401 23.8801 13.9401Z" fill="url(#paint1_linear_252_8984)"/>
    <path d="M22.02 32.8101C21.03 32.8101 20.07 32.4101 19.37 31.7101C18.67 31.0101 18.27 30.0501 18.27 29.0601H19.77C19.77 29.6501 20.01 30.2301 20.43 30.6501C20.85 31.0701 21.43 31.3101 22.02 31.3101C23.26 31.3101 24.27 30.3001 24.27 29.0601H25.77C25.77 31.1301 24.09 32.8101 22.02 32.8101Z" fill="url(#paint2_linear_252_8984)"/>
    <circle cx="27" cy="16" r="2.5" fill="#EB5757" stroke="#023047"/>
    <rect x="0.5" y="0.5" width="43" height="43" rx="21.5" stroke="url(#paint3_linear_252_8984)"/>
    <defs>
        <linearGradient id="paint0_linear_252_8984" x1="13.9711" y1="22.8688" x2="30.4672" y2="22.8688" gradientUnits="userSpaceOnUse">
            <stop stop-color="#F2BB5B"/>
            <stop offset="1" stop-color="#F3D97F"/>
        </linearGradient>
        <linearGradient id="paint1_linear_252_8984" x1="19.6462" y1="12.7911" x2="24.543" y2="12.7911" gradientUnits="userSpaceOnUse">
            <stop stop-color="#F2BB5B"/>
            <stop offset="1" stop-color="#F3D97F"/>
        </linearGradient>
        <linearGradient id="paint2_linear_252_8984" x1="18.5884" y1="31.2453" x2="25.644" y2="31.2453" gradientUnits="userSpaceOnUse">
            <stop stop-color="#F2BB5B"/>
            <stop offset="1" stop-color="#F3D97F"/>
        </linearGradient>
        <linearGradient id="paint3_linear_252_8984" x1="1.86773" y1="25.6397" x2="43.2607" y2="25.6397" gradientUnits="userSpaceOnUse">
            <stop stop-color="#F2BB5B"/>
            <stop offset="1" stop-color="#F3D97F"/>
        </linearGradient>
    </defs>
</svg>
