<svg width="16" height="16" viewBox="0 0 16 16" fill="none"
    xmlns="http://www.w3.org/2000/svg">
    <path d="M11.4933 15.1667H4.50662C2.63995 15.1667 1.45329 14.0534 1.34662 12.1934L0.999953 6.69337C0.946619 5.86004 1.23329 5.06004 1.80662 4.45337C2.37329 3.84671 3.17329 3.50004 3.99995 3.50004C4.21329 3.50004 4.41995 3.37337 4.51995 3.17337L4.99995 2.22004C5.39329 1.44004 6.37995 0.833374 7.23995 0.833374H8.76662C9.62662 0.833374 10.6066 1.44004 11 2.21337L11.48 3.18671C11.58 3.37337 11.78 3.50004 12 3.50004C12.8266 3.50004 13.6266 3.84671 14.1933 4.45337C14.7666 5.06671 15.0533 5.86004 15 6.69337L14.6533 12.2C14.5333 14.0867 13.38 15.1667 11.4933 15.1667ZM7.23995 1.83337C6.74662 1.83337 6.11995 2.22004 5.89329 2.66671L5.41329 3.62671C5.13329 4.16671 4.59329 4.50004 3.99995 4.50004C3.43995 4.50004 2.91995 4.72671 2.53329 5.13337C2.15329 5.54004 1.95995 6.07337 1.99995 6.62671L2.34662 12.1334C2.42662 13.48 3.15329 14.1667 4.50662 14.1667H11.4933C12.84 14.1667 13.5666 13.48 13.6533 12.1334L14 6.62671C14.0333 6.07337 13.8466 5.54004 13.4666 5.13337C13.08 4.72671 12.56 4.50004 12 4.50004C11.4066 4.50004 10.8666 4.16671 10.5866 3.64004L10.1 2.66671C9.87995 2.22671 9.25329 1.84004 8.75995 1.84004H7.23995V1.83337Z" fill="#219EBC"/>
    <path d="M9 5.83337H7C6.72667 5.83337 6.5 5.60671 6.5 5.33337C6.5 5.06004 6.72667 4.83337 7 4.83337H9C9.27333 4.83337 9.5 5.06004 9.5 5.33337C9.5 5.60671 9.27333 5.83337 9 5.83337Z" fill="#219EBC"/>
    <path d="M7.99992 12.5C6.52659 12.5 5.33325 11.3066 5.33325 9.83329C5.33325 8.35996 6.52659 7.16663 7.99992 7.16663C9.47325 7.16663 10.6666 8.35996 10.6666 9.83329C10.6666 11.3066 9.47325 12.5 7.99992 12.5ZM7.99992 8.16663C7.07992 8.16663 6.33325 8.91329 6.33325 9.83329C6.33325 10.7533 7.07992 11.5 7.99992 11.5C8.91992 11.5 9.66659 10.7533 9.66659 9.83329C9.66659 8.91329 8.91992 8.16663 7.99992 8.16663Z" fill="#219EBC"/>
</svg>
