<svg width="115" height="115" viewBox="0 0 115 115" fill="none" xmlns="http://www.w3.org/2000/svg">
    <g opacity="0.1">
    <path d="M91.0416 64.0166H9.58325C7.61867 64.0166 5.9895 62.3874 5.9895 60.4228C5.9895 58.4583 7.61867 56.8291 9.58325 56.8291H91.0416C93.0062 56.8291 94.6353 58.4583 94.6353 60.4228C94.6353 62.3874 93.0062 64.0166 91.0416 64.0166Z" fill="white"/>
    <path d="M72.9289 104.219H27.6959C11.2605 104.219 5.9895 98.9958 5.9895 82.752V49.2583C5.9895 36.3687 8.91252 28.75 23.7667 27.8875C25.0125 27.8395 26.3063 27.7916 27.6959 27.7916H72.9289C89.3644 27.7916 94.6353 33.0145 94.6353 49.2583V83.5187C94.4437 99.1875 89.1727 104.219 72.9289 104.219ZM27.6959 34.9791C26.4021 34.9791 25.2042 35.027 24.1021 35.075C15.5251 35.602 13.177 37.4229 13.177 49.2583V82.752C13.177 95.0187 15.1896 97.0312 27.6959 97.0312H72.9289C85.2914 97.0312 87.3041 95.1145 87.4478 83.4708V49.2583C87.4478 36.9916 85.4352 34.9791 72.9289 34.9791H27.6959V34.9791Z" fill="white"/>
    <path d="M91.0416 87.1125C90.1312 87.1125 89.2207 86.7771 88.5978 86.1542C87.879 85.4833 87.4478 84.525 87.4478 83.5188V49.2583C87.4478 36.9917 85.4352 34.9792 72.9289 34.9792H27.6959C26.4021 34.9792 25.2042 35.0271 24.1021 35.075C23.1438 35.1229 22.1852 34.7396 21.4665 34.0688C20.7477 33.3979 20.3645 32.4396 20.3645 31.4333C20.5562 15.8125 25.8271 10.7812 42.0709 10.7812H87.3039C103.739 10.7812 109.01 16.0042 109.01 32.2479V65.7417C109.01 78.6313 106.087 86.25 91.2331 87.1125C91.1852 87.1125 91.0895 87.1125 91.0416 87.1125ZM27.6959 27.7917H72.9289C89.3644 27.7917 94.6353 33.0146 94.6353 49.2583V79.5417C100.194 78.5354 101.823 75.6604 101.823 65.7417V32.2479C101.823 19.9812 99.8102 17.9688 87.3039 17.9688H42.0709C31.1459 17.9688 28.3188 19.4542 27.6959 27.7917Z" fill="white"/>
    <path d="M33.3512 88.9333H25.1094C23.1448 88.9333 21.5156 87.3042 21.5156 85.3396C21.5156 83.375 23.1448 81.7458 25.1094 81.7458H33.3512C35.3158 81.7458 36.9449 83.375 36.9449 85.3396C36.9449 87.3042 35.3637 88.9333 33.3512 88.9333Z" fill="#F0F0F0"/>
    <path d="M60.1347 88.9333H43.6514C41.6868 88.9333 40.0576 87.3042 40.0576 85.3396C40.0576 83.375 41.6868 81.7458 43.6514 81.7458H60.1347C62.0993 81.7458 63.7285 83.375 63.7285 85.3396C63.7285 87.3042 62.1472 88.9333 60.1347 88.9333Z" fill="#F0F0F0"/>
    </g>
    </svg>
    