<svg width="128" height="128" viewBox="0 0 128 128" fill="none"
    xmlns="http://www.w3.org/2000/svg">
    <g opacity="0.1">
        <path d="M64.0001 121.333C32.3734 121.333 6.66675 95.6266 6.66675 64C6.66675 32.3733 32.3734 6.66663 64.0001 6.66663C95.6267 6.66663 121.333 32.3733 121.333 64C121.333 95.6266 95.6267 121.333 64.0001 121.333ZM64.0001 14.6666C36.8001 14.6666 14.6667 36.8 14.6667 64C14.6667 91.2 36.8001 113.333 64.0001 113.333C91.2001 113.333 113.333 91.2 113.333 64C113.333 36.8 91.2001 14.6666 64.0001 14.6666Z" fill="#292D32"/>
        <path d="M83.7867 84.96C83.0934 84.96 82.4001 84.8 81.7601 84.3733L65.2267 74.5067C61.1201 72.0533 58.0801 66.6667 58.0801 61.92V40.0533C58.0801 37.8667 59.8934 36.0533 62.0801 36.0533C64.2667 36.0533 66.0801 37.8667 66.0801 40.0533V61.92C66.0801 63.84 67.6801 66.6667 69.3334 67.6267L85.8667 77.4933C87.7867 78.6133 88.3734 81.0667 87.2534 82.9867C86.4534 84.2667 85.1201 84.96 83.7867 84.96Z" fill="#292D32"/>
    </g>
</svg>
    