<svg width="25" height="24" viewBox="0 0 25 24" fill="none" xmlns="http://www.w3.org/2000/svg">
    <path fill-rule="evenodd" clip-rule="evenodd" d="M16.4083 8.23285C16.4083 10.5825 14.5351 12.4666 12.199 12.4666C9.86292 12.4666 7.98974 10.5825 7.98974 8.23285C7.98974 5.88227 9.86292 4 12.199 4C14.5351 4 16.4083 5.88227 16.4083 8.23285ZM12.199 20C8.76785 20 5.83809 19.456 5.83809 17.2802C5.83809 15.1034 8.74904 14.5396 12.199 14.5396C15.6302 14.5396 18.56 15.0836 18.56 17.2604C18.56 19.4362 15.649 20 12.199 20ZM18.2071 8.30922C18.2071 9.50703 17.8498 10.6229 17.223 11.5505C17.1586 11.646 17.2159 11.7748 17.3296 11.7946C17.4863 11.8216 17.6484 11.8369 17.8131 11.8414C19.4562 11.8846 20.9309 10.821 21.3383 9.21974C21.9418 6.84123 20.1698 4.7059 17.9134 4.7059C17.6681 4.7059 17.4335 4.73201 17.2051 4.77884C17.1738 4.78605 17.1407 4.80046 17.1228 4.82838C17.1013 4.8626 17.1174 4.90853 17.1389 4.93825C17.8167 5.8938 18.2071 7.05918 18.2071 8.30922ZM20.9282 13.5126C22.0323 13.7296 22.7584 14.1727 23.0593 14.8166C23.3136 15.3453 23.3136 15.9586 23.0593 16.4864C22.599 17.4851 21.1154 17.8058 20.5387 17.8886C20.4196 17.9066 20.3238 17.8031 20.3364 17.6833C20.6309 14.9157 18.2877 13.6035 17.6815 13.3018C17.6555 13.2883 17.6502 13.2676 17.6528 13.255C17.6546 13.246 17.6654 13.2316 17.6851 13.2289C18.9968 13.2046 20.4071 13.3847 20.9282 13.5126ZM6.68711 11.8413C6.85186 11.8368 7.01304 11.8224 7.17063 11.7945C7.28434 11.7747 7.34165 11.6459 7.27718 11.5504C6.6504 10.6228 6.29313 9.50694 6.29313 8.30913C6.29313 7.05909 6.68353 5.89371 7.36135 4.93816C7.38284 4.90844 7.39806 4.86251 7.37746 4.82829C7.35956 4.80127 7.32553 4.78596 7.29509 4.77875C7.06586 4.73192 6.83127 4.70581 6.58593 4.70581C4.32951 4.70581 2.55751 6.84114 3.16191 9.21965C3.56932 10.8209 5.04405 11.8845 6.68711 11.8413ZM6.84694 13.2545C6.84962 13.268 6.84425 13.2878 6.81918 13.3022C6.2121 13.6039 3.86883 14.9161 4.16342 17.6827C4.17595 17.8034 4.08104 17.9061 3.96195 17.889C3.38531 17.8061 1.90163 17.4855 1.44139 16.4867C1.1862 15.9581 1.1862 15.3457 1.44139 14.817C1.74225 14.1731 2.46752 13.73 3.57156 13.512C4.09358 13.385 5.50294 13.2049 6.8156 13.2292C6.8353 13.2319 6.84515 13.2464 6.84694 13.2545Z" fill="#25388D"/>
    </svg>
    