<svg width="25" height="24" viewBox="0 0 25 24" fill="none" xmlns="http://www.w3.org/2000/svg">
    <path fill-rule="evenodd" clip-rule="evenodd" d="M12.1097 13.138H12.1367C14.6567 13.138 16.7057 11.088 16.7057 8.569C16.7057 6.05 14.6567 4 12.1367 4C9.6177 4 7.5687 6.05 7.5687 8.566C7.5637 9.783 8.0327 10.929 8.8907 11.792C9.7467 12.656 10.8897 13.134 12.1097 13.138ZM9.0687 8.569C9.0687 6.877 10.4447 5.5 12.1367 5.5C13.8287 5.5 15.2057 6.877 15.2057 8.569C15.2057 10.262 13.8287 11.638 12.1367 11.638H12.1117C11.2957 11.635 10.5297 11.314 9.9547 10.735C9.3797 10.156 9.0657 9.389 9.0687 8.569Z" fill="#9E9E9E"/>
    <path d="M17.3948 11.5005C17.4478 11.8755 17.7688 12.1465 18.1368 12.1465C18.1708 12.1465 18.2058 12.1445 18.2408 12.1395C20.0158 11.8905 21.3568 10.3505 21.3608 8.55551C21.3608 6.77251 20.0838 5.26851 18.3258 4.97951C17.9148 4.91451 17.5318 5.18851 17.4638 5.59751C17.3968 6.00651 17.6738 6.39251 18.0818 6.45951C19.1128 6.62851 19.8608 7.51051 19.8608 8.55351C19.8588 9.60551 19.0738 10.5075 18.0338 10.6535C17.6228 10.7105 17.3378 11.0895 17.3948 11.5005Z" fill="#9E9E9E"/>
    <path d="M20.4104 18.0482C20.5244 18.3472 20.8094 18.5312 21.1114 18.5312C21.2004 18.5312 21.2904 18.5152 21.3784 18.4822C22.8084 17.9372 23.0224 16.9442 23.0224 16.4002C23.0224 15.5092 22.5134 14.3712 20.0904 14.0082C19.6774 13.9552 19.2974 14.2282 19.2364 14.6382C19.1754 15.0492 19.4584 15.4302 19.8674 15.4922C20.9654 15.6562 21.5224 15.9622 21.5224 16.4002C21.5224 16.5372 21.5224 16.8222 20.8444 17.0802C20.4574 17.2272 20.2624 17.6612 20.4104 18.0482Z" fill="#9E9E9E"/>
    <path fill-rule="evenodd" clip-rule="evenodd" d="M12.1367 20.7909C10.4777 20.7909 5.42767 20.7909 5.42767 17.5959C5.42767 14.4139 10.4777 14.4139 12.1367 14.4139C13.7957 14.4139 18.8447 14.4139 18.8447 17.6129C18.8447 20.7909 13.9717 20.7909 12.1367 20.7909ZM12.1367 15.9139C9.76067 15.9139 6.92767 16.2059 6.92767 17.5959C6.92767 18.9969 9.76067 19.2909 12.1367 19.2909C14.5127 19.2909 17.3447 18.9999 17.3447 17.6129C17.3447 16.2089 14.5127 15.9139 12.1367 15.9139Z" fill="#9E9E9E"/>
    <path d="M6.13566 12.1465C6.10166 12.1465 6.06666 12.1445 6.03166 12.1395C4.25666 11.8905 2.91666 10.3505 2.91266 8.55745C2.91266 6.77245 4.18966 5.26845 5.94766 4.97945C6.36866 4.91345 6.74166 5.19045 6.80966 5.59745C6.87666 6.00645 6.59966 6.39245 6.19166 6.45945C5.16066 6.62845 4.41266 7.51045 4.41266 8.55545C4.41466 9.60545 5.19966 10.5085 6.23866 10.6535C6.64966 10.7105 6.93466 11.0894 6.87766 11.5005C6.82466 11.8755 6.50366 12.1465 6.13566 12.1465Z" fill="#9E9E9E"/>
    <path d="M2.89506 18.4822C2.98306 18.5152 3.07306 18.5312 3.16206 18.5312C3.46406 18.5312 3.74906 18.3472 3.86306 18.0482C4.01106 17.6612 3.81606 17.2272 3.42906 17.0802C2.75006 16.8212 2.75006 16.5372 2.75006 16.4002C2.75006 15.9622 3.30706 15.6562 4.40506 15.4922C4.81406 15.4302 5.09706 15.0492 5.03606 14.6382C4.97406 14.2282 4.59606 13.9562 4.18306 14.0082C1.75906 14.3712 1.25006 15.5102 1.25006 16.4002C1.25006 16.9432 1.46406 17.9362 2.89506 18.4822Z" fill="#9E9E9E"/>
    </svg>
    