


     <svg width="115" height="115" viewBox="0 0 115 115" fill="none" xmlns="http://www.w3.org/2000/svg">
        <g opacity="0.1">
        <path d="M62.5311 77.8645H53.5229C47.15 77.8645 41.927 72.4978 41.927 65.8853C41.927 63.9207 43.5562 62.2915 45.5208 62.2915C47.4853 62.2915 49.1145 63.9207 49.1145 65.8853C49.1145 68.5207 51.0791 70.677 53.5229 70.677H62.5311C64.3999 70.677 65.8853 68.9999 65.8853 66.9395C65.8853 64.352 65.1666 63.9686 63.5375 63.3936L49.1145 58.3623C46.0478 57.3082 41.927 55.0561 41.927 48.0124C41.927 42.0228 46.6708 37.0874 52.4687 37.0874H61.4769C67.8499 37.0874 73.0728 42.4541 73.0728 49.0666C73.0728 51.0312 71.4437 52.6603 69.4791 52.6603C67.5145 52.6603 65.8853 51.0312 65.8853 49.0666C65.8853 46.4312 63.9207 44.2749 61.4769 44.2749H52.4687C50.6 44.2749 49.1145 45.952 49.1145 48.0124C49.1145 50.5999 49.8332 50.9832 51.4624 51.5582L65.8853 56.5894C68.952 57.6436 73.0728 59.8957 73.0728 66.9395C73.0728 72.977 68.329 77.8645 62.5311 77.8645Z" fill="white"/>
        <path d="M57.5 82.6562C55.5354 82.6562 53.9062 81.0271 53.9062 79.0625V35.9375C53.9062 33.9729 55.5354 32.3438 57.5 32.3438C59.4646 32.3438 61.0937 33.9729 61.0937 35.9375V79.0625C61.0937 81.0271 59.4646 82.6562 57.5 82.6562Z" fill="white"/>
        <path d="M57.4999 109.01C29.0853 109.01 5.9895 85.9146 5.9895 57.5C5.9895 29.0855 29.0853 5.98962 57.4999 5.98962C59.4645 5.98962 61.0937 7.61879 61.0937 9.58337C61.0937 11.548 59.4645 13.1771 57.4999 13.1771C33.0624 13.1771 13.177 33.0625 13.177 57.5C13.177 81.9375 33.0624 101.823 57.4999 101.823C81.9374 101.823 101.823 81.9375 101.823 57.5C101.823 55.5355 103.452 53.9063 105.417 53.9063C107.381 53.9063 109.01 55.5355 109.01 57.5C109.01 85.9146 85.9145 109.01 57.4999 109.01Z" fill="white"/>
        <path d="M100.625 37.1354H81.4583C79.4937 37.1354 77.8645 35.5063 77.8645 33.5417V14.375C77.8645 12.4104 79.4937 10.7812 81.4583 10.7812C83.4228 10.7812 85.052 12.4104 85.052 14.375V29.9479H100.625C102.589 29.9479 104.219 31.5771 104.219 33.5417C104.219 35.5063 102.589 37.1354 100.625 37.1354Z" fill="#F0F0F0"/>
        <path d="M81.458 37.1354C80.5476 37.1354 79.6372 36.8 78.9184 36.0813C77.5288 34.6917 77.5288 32.3917 78.9184 31.0021L102.877 7.04377C104.266 5.65419 106.566 5.65419 107.956 7.04377C109.345 8.43336 109.345 10.7333 107.956 12.1229L83.9976 36.0813C83.2788 36.8 82.3684 37.1354 81.458 37.1354Z" fill="#F0F0F0"/>
        </g>
        </svg>
        