<svg width="16" height="16" viewBox="0 0 16 16" fill="none"
    xmlns="http://www.w3.org/2000/svg">
    <path d="M9.99992 15.1667H5.99992C2.37992 15.1667 0.833252 13.62 0.833252 10V6.00004C0.833252 2.38004 2.37992 0.833374 5.99992 0.833374H9.33325C9.60659 0.833374 9.83325 1.06004 9.83325 1.33337C9.83325 1.60671 9.60659 1.83337 9.33325 1.83337H5.99992C2.92659 1.83337 1.83325 2.92671 1.83325 6.00004V10C1.83325 13.0734 2.92659 14.1667 5.99992 14.1667H9.99992C13.0733 14.1667 14.1666 13.0734 14.1666 10V6.66671C14.1666 6.39337 14.3933 6.16671 14.6666 6.16671C14.9399 6.16671 15.1666 6.39337 15.1666 6.66671V10C15.1666 13.62 13.6199 15.1667 9.99992 15.1667Z" fill="white"/>
    <path d="M14.6666 7.1667H11.9999C9.71992 7.1667 8.83325 6.28003 8.83325 4.00003V1.33337C8.83325 1.13337 8.95325 0.9467 9.13992 0.873366C9.32659 0.793366 9.53992 0.840033 9.68659 0.980033L15.0199 6.31337C15.1599 6.45337 15.2066 6.67337 15.1266 6.86003C15.0466 7.0467 14.8666 7.1667 14.6666 7.1667ZM9.83325 2.54003V4.00003C9.83325 5.72003 10.2799 6.1667 11.9999 6.1667H13.4599L9.83325 2.54003Z" fill="white"/>
    <path d="M8.66675 9.16663H4.66675C4.39341 9.16663 4.16675 8.93996 4.16675 8.66663C4.16675 8.39329 4.39341 8.16663 4.66675 8.16663H8.66675C8.94008 8.16663 9.16675 8.39329 9.16675 8.66663C9.16675 8.93996 8.94008 9.16663 8.66675 9.16663Z" fill="white"/>
    <path d="M7.33342 11.8334H4.66675C4.39341 11.8334 4.16675 11.6067 4.16675 11.3334C4.16675 11.06 4.39341 10.8334 4.66675 10.8334H7.33342C7.60675 10.8334 7.83342 11.06 7.83342 11.3334C7.83342 11.6067 7.60675 11.8334 7.33342 11.8334Z" fill="white"/>
</svg>
