<svg width="24" height="24" viewBox="0 0 24 24" fill="none"
    xmlns="http://www.w3.org/2000/svg">
    <path d="M14.22 21.63C13.04 21.63 11.37 20.8 10.05 16.83L9.33 14.67L7.17 13.95C3.21 12.63 2.38 10.96 2.38 9.77999C2.38 8.60999 3.21 6.93 7.17 5.59999L15.66 2.76999C17.78 2.05999 19.55 2.26999 20.64 3.34999C21.73 4.42999 21.94 6.20999 21.23 8.32999L18.4 16.82C17.07 20.8 15.4 21.63 14.22 21.63ZM7.64 7.02999C4.86 7.95999 3.87 9.05999 3.87 9.77999C3.87 10.5 4.86 11.6 7.64 12.52L10.16 13.36C10.38 13.43 10.56 13.61 10.63 13.83L11.47 16.35C12.39 19.13 13.5 20.12 14.22 20.12C14.94 20.12 16.04 19.13 16.97 16.35L19.8 7.85999C20.31 6.31999 20.22 5.05999 19.57 4.40999C18.92 3.75999 17.66 3.67999 16.13 4.18999L7.64 7.02999Z" fill="#292D32"/>
    <path d="M10.11 14.4C9.92 14.4 9.73 14.33 9.58 14.18C9.29 13.89 9.29 13.41 9.58 13.12L13.16 9.53C13.45 9.24 13.93 9.24 14.22 9.53C14.51 9.82 14.51 10.3 14.22 10.59L10.64 14.18C10.5 14.33 10.3 14.4 10.11 14.4Z" fill="#292D32"/>
</svg>
    