<svg width="130" height="130" viewBox="0 0 130 130" fill="none"
    xmlns="http://www.w3.org/2000/svg">
    <g opacity="0.1">
        <path d="M108.331 63.6463H21.6645C20.4186 63.6463 19.2811 63.1046 18.5228 62.1296C17.7645 61.2088 17.4395 59.9088 17.7103 58.7171L23.8311 29.4671C25.8353 19.9879 29.8978 11.2671 45.9853 11.2671H84.0645C100.152 11.2671 104.214 20.0421 106.219 29.4671L112.339 58.7713C112.61 59.9629 112.285 61.2088 111.527 62.1838C110.714 63.1046 109.577 63.6463 108.331 63.6463ZM26.6478 55.5213H103.294L98.202 31.1463C96.6853 24.0504 94.8978 19.3921 84.0103 19.3921H45.9853C35.0978 19.3921 33.3103 24.0504 31.7936 31.1463L26.6478 55.5213Z" fill="white"/>
        <path d="M108.114 123.23H97.9312C89.1562 123.23 87.477 118.192 86.3937 114.888L85.3103 111.638C83.902 107.521 83.7395 106.98 78.8645 106.98H51.1312C46.2562 106.98 45.9312 107.9 44.6853 111.638L43.602 114.888C42.4645 118.246 40.8395 123.23 32.0645 123.23H21.8812C17.602 123.23 13.4853 121.442 10.6145 118.3C7.79782 115.213 6.44365 111.096 6.82282 106.98L9.85615 73.9921C10.6687 65.0546 13.052 55.5212 30.4395 55.5212H99.5562C116.944 55.5212 119.273 65.0546 120.139 73.9921L123.173 106.98C123.552 111.096 122.198 115.213 119.381 118.3C116.51 121.442 112.394 123.23 108.114 123.23ZM51.1312 98.8546H78.8645C88.7228 98.8546 91.052 103.242 93.002 108.984L94.1395 112.342C95.0603 115.105 95.0603 115.159 97.9853 115.159H108.169C110.173 115.159 112.069 114.346 113.423 112.884C114.723 111.475 115.319 109.688 115.156 107.792L112.123 74.8046C111.419 67.4921 110.552 63.7004 99.6645 63.7004H30.4395C19.4978 63.7004 18.6312 67.4921 17.9812 74.8046L14.9478 107.792C14.7853 109.688 15.3812 111.475 16.6812 112.884C17.9812 114.346 19.9312 115.159 21.9353 115.159H32.1187C35.0437 115.159 35.0437 115.105 35.9645 112.396L37.0478 109.092C38.402 104.759 40.4062 98.8546 51.1312 98.8546Z" fill="white"/>
        <path d="M21.6645 47.3962H16.2478C14.027 47.3962 12.1853 45.5546 12.1853 43.3337C12.1853 41.1129 14.027 39.2712 16.2478 39.2712H21.6645C23.8853 39.2712 25.727 41.1129 25.727 43.3337C25.727 45.5546 23.8853 47.3962 21.6645 47.3962Z" fill="white"/>
        <path d="M113.748 47.3962H108.331C106.11 47.3962 104.269 45.5546 104.269 43.3337C104.269 41.1129 106.11 39.2712 108.331 39.2712H113.748C115.969 39.2712 117.81 41.1129 117.81 43.3337C117.81 45.5546 115.969 47.3962 113.748 47.3962Z" fill="white"/>
        <path d="M64.9978 31.1462C62.777 31.1462 60.9353 29.3045 60.9353 27.0837V16.2504C60.9353 14.0295 62.777 12.1879 64.9978 12.1879C67.2186 12.1879 69.0603 14.0295 69.0603 16.2504V27.0837C69.0603 29.3045 67.2186 31.1462 64.9978 31.1462Z" fill="white"/>
        <path d="M73.1228 31.1462H56.8728C54.652 31.1462 52.8103 29.3046 52.8103 27.0837C52.8103 24.8629 54.652 23.0212 56.8728 23.0212H73.1228C75.3436 23.0212 77.1853 24.8629 77.1853 27.0837C77.1853 29.3046 75.3436 31.1462 73.1228 31.1462Z" fill="white"/>
        <path d="M48.7478 85.313H32.4978C30.277 85.313 28.4353 83.4713 28.4353 81.2505C28.4353 79.0297 30.277 77.188 32.4978 77.188H48.7478C50.9686 77.188 52.8103 79.0297 52.8103 81.2505C52.8103 83.4713 50.9686 85.313 48.7478 85.313Z" fill="#292D32"/>
        <path d="M97.4978 85.313H81.2478C79.027 85.313 77.1853 83.4713 77.1853 81.2505C77.1853 79.0297 79.027 77.188 81.2478 77.188H97.4978C99.7186 77.188 101.56 79.0297 101.56 81.2505C101.56 83.4713 99.7186 85.313 97.4978 85.313Z" fill="#292D32"/>
    </g>
</svg>
    