<svg width="25" height="24" viewBox="0 0 25 24" fill="none" xmlns="http://www.w3.org/2000/svg">
    <path fill-rule="evenodd" clip-rule="evenodd" d="M9.0787 16.1355C9.0787 15.7213 9.41449 15.3855 9.8287 15.3855H15.6437C16.0579 15.3855 16.3937 15.7213 16.3937 16.1355C16.3937 16.5497 16.0579 16.8855 15.6437 16.8855H9.8287C9.41449 16.8855 9.0787 16.5497 9.0787 16.1355Z" fill="#9E9E9E"/>
    <path fill-rule="evenodd" clip-rule="evenodd" d="M7.55986 5.97765C7.14731 6.35978 6.7769 6.68822 6.44762 6.97845C6.40115 7.01941 6.35564 7.05949 6.31105 7.09875C6.03214 7.34435 5.78925 7.55824 5.57107 7.75963C5.06576 8.22608 4.74657 8.57827 4.52085 8.97216C4.06835 9.76176 3.9 10.869 3.9 13.713C3.9 15.7691 4.02306 17.2451 4.30116 18.3153C4.57415 19.3658 4.98112 19.9679 5.52022 20.3548C6.08326 20.759 6.88704 20.9997 8.09745 21.1245C9.30666 21.2491 10.815 21.25 12.736 21.25C14.657 21.25 16.1653 21.2491 17.3746 21.1245C18.585 20.9997 19.3887 20.759 19.9518 20.3548C20.4909 19.9679 20.8979 19.3658 21.1708 18.3153C21.4489 17.2451 21.572 15.7691 21.572 13.713C21.572 10.8689 21.4039 9.76166 20.9516 8.97204C20.726 8.57818 20.4069 8.22601 19.9017 7.75958C19.6834 7.55801 19.4403 7.34391 19.1611 7.09801C19.1167 7.05898 19.0715 7.01914 19.0253 6.97843C18.6961 6.6882 18.3257 6.35976 17.9131 5.97762C17.6689 5.78041 17.4159 5.56703 17.1537 5.34588C16.5826 4.86414 15.9677 4.34554 15.3044 3.87695C14.3195 3.18118 13.4275 2.75 12.708 2.75C11.9909 2.75 11.111 3.18121 10.1391 3.87803C9.50484 4.33278 8.92462 4.827 8.37942 5.29137C8.09776 5.53128 7.82544 5.76323 7.55986 5.97765ZM9.26512 2.65897C10.2655 1.94179 11.4821 1.25 12.708 1.25C13.9305 1.25 15.157 1.93632 16.1699 2.6518C16.8858 3.15759 17.5941 3.75449 18.187 4.25416C18.4399 4.46729 18.6719 4.66274 18.8744 4.82587C18.888 4.83681 18.9012 4.84822 18.914 4.86008C19.32 5.23662 19.6854 5.5607 20.0172 5.85318C20.0622 5.89284 20.1067 5.93205 20.1507 5.97083C20.4286 6.21553 20.6868 6.4429 20.9192 6.65748C21.4585 7.15537 21.9124 7.63157 22.2532 8.22646C22.9336 9.41434 23.072 10.9261 23.072 13.713C23.072 15.8004 22.9502 17.432 22.6226 18.6926C22.29 19.9727 21.7305 20.9245 20.8265 21.5734C19.9464 22.2051 18.8304 22.4824 17.5284 22.6166C16.2337 22.75 14.6494 22.75 12.7732 22.75H12.6988C10.8226 22.75 9.23831 22.75 7.94365 22.6166C6.64165 22.4824 5.52562 22.2051 4.64553 21.5734C3.74151 20.9245 3.18204 19.9727 2.84938 18.6926C2.52181 17.432 2.4 15.8004 2.4 13.713C2.4 10.926 2.53865 9.41424 3.21941 8.22634C3.5603 7.63148 4.0143 7.1553 4.55365 6.65743C4.78583 6.4431 5.04376 6.216 5.32131 5.97161C5.36565 5.93257 5.41048 5.89309 5.4558 5.85316C5.78761 5.56069 6.153 5.23661 6.55901 4.86008C6.57184 4.84818 6.58508 4.83674 6.59871 4.82577C6.81083 4.65502 7.05839 4.44454 7.32993 4.21367C7.90391 3.72566 8.58505 3.14655 9.26512 2.65897Z" fill="#9E9E9E"/>
    </svg>
    