<svg width="115" height="115" viewBox="0 0 115 115" fill="none" xmlns="http://www.w3.org/2000/svg">
    <g opacity="0.1">
    <path d="M57.5 89.8437C55.5354 89.8437 53.9062 88.2146 53.9062 86.25V71.875C53.9062 69.9104 55.5354 68.2812 57.5 68.2812C59.4646 68.2812 61.0937 69.9104 61.0937 71.875V86.25C61.0937 88.2146 59.4646 89.8437 57.5 89.8437Z" fill="white"/>
    <path d="M84.3333 108.1H30.6666C21.9458 108.1 13.9916 101.392 12.5541 92.8145L6.18118 54.625C5.12702 48.6833 8.04993 41.0645 12.7937 37.2791L45.9999 10.6854C52.4208 5.51038 62.5312 5.55829 68.9999 10.7333L102.206 37.2791C106.902 41.0645 109.777 48.6833 108.819 54.625L102.446 92.7666C101.008 101.248 92.8624 108.1 84.3333 108.1ZM57.452 14.0395C54.9124 14.0395 52.3728 14.8062 50.5041 16.2916L17.2978 42.9333C14.6145 45.0895 12.6978 50.0729 13.2728 53.475L19.6458 91.6166C20.5083 96.6479 25.5395 100.912 30.6666 100.912H84.3333C89.4603 100.912 94.4916 96.6479 95.3541 91.5687L101.727 53.427C102.254 50.0729 100.337 44.9937 97.702 42.8854L64.4958 16.3395C62.5791 14.8062 59.9916 14.0395 57.452 14.0395Z" fill="white"/>
    </g>
    </svg>
    