<svg width="25" height="24" viewBox="0 0 25 24" fill="none" xmlns="http://www.w3.org/2000/svg">
<path fill-rule="evenodd" clip-rule="evenodd" d="M15.6581 16.885H9.84306C9.42906 16.885 9.09306 16.549 9.09306 16.135C9.09306 15.721 9.42906 15.385 9.84306 15.385H15.6581C16.0721 15.385 16.4081 15.721 16.4081 16.135C16.4081 16.549 16.0721 16.885 15.6581 16.885ZM19.9991 6.158C19.6361 5.838 19.2231 5.476 18.7311 5.021C18.5081 4.841 18.2641 4.635 18.0051 4.417C16.5451 3.186 14.5451 1.5 12.7221 1.5C10.9201 1.5 9.04906 3.092 7.54606 4.371C7.26806 4.607 7.00806 4.829 6.74306 5.044C6.27706 5.476 5.86406 5.839 5.50006 6.16C3.11306 8.261 2.66406 8.812 2.66406 13.713C2.66406 22.5 5.20506 22.5 12.7501 22.5C20.2941 22.5 22.8361 22.5 22.8361 13.713C22.8361 8.811 22.3871 8.26 19.9991 6.158Z" fill="#25388D"/>
</svg>
