<svg width="25" height="24" viewBox="0 0 25 24" fill="none" xmlns="http://www.w3.org/2000/svg">
    <path fill-rule="evenodd" clip-rule="evenodd" d="M7.9663 16.0029C7.8063 16.0029 7.6453 15.9519 7.5093 15.8479C7.1813 15.5949 7.1193 15.1239 7.3723 14.7959L10.3653 10.9059C10.4873 10.7469 10.6683 10.6439 10.8663 10.6189C11.0683 10.5929 11.2663 10.6489 11.4233 10.7739L14.2433 12.9889L16.7103 9.80587C16.9643 9.47687 17.4343 9.41587 17.7623 9.67187C18.0903 9.92587 18.1503 10.3969 17.8963 10.7239L14.9663 14.5039C14.8443 14.6619 14.6643 14.7649 14.4663 14.7889C14.2663 14.8159 14.0683 14.7579 13.9103 14.6349L11.0923 12.4209L8.5613 15.7099C8.4133 15.9019 8.1913 16.0029 7.9663 16.0029Z" fill="#9E9E9E"/>
    <mask id="mask0_301_639" style="mask-type:luminance" maskUnits="userSpaceOnUse" x="18" y="2" width="6" height="6">
    <path fill-rule="evenodd" clip-rule="evenodd" d="M18.0453 2.00012H23.3893V7.34502H18.0453V2.00012Z" fill="white"/>
    </mask>
    <g mask="url(#mask0_301_639)">
    <path fill-rule="evenodd" clip-rule="evenodd" d="M20.7173 3.5C20.0713 3.5 19.5453 4.025 19.5453 4.672C19.5453 5.318 20.0713 5.845 20.7173 5.845C21.3633 5.845 21.8893 5.318 21.8893 4.672C21.8893 4.025 21.3633 3.5 20.7173 3.5ZM20.7173 7.345C19.2443 7.345 18.0453 6.146 18.0453 4.672C18.0453 3.198 19.2443 2 20.7173 2C22.1913 2 23.3893 3.198 23.3893 4.672C23.3893 6.146 22.1913 7.345 20.7173 7.345Z" fill="#9E9E9E"/>
    </g>
    <mask id="mask1_301_639" style="mask-type:luminance" maskUnits="userSpaceOnUse" x="2" y="2" width="21" height="21">
    <path fill-rule="evenodd" clip-rule="evenodd" d="M2.75 2.84216H22.6119V22.7032H2.75V2.84216Z" fill="white"/>
    </mask>
    <g mask="url(#mask1_301_639)">
    <path fill-rule="evenodd" clip-rule="evenodd" d="M16.9829 22.7032H8.37889C5.01189 22.7032 2.74989 20.3382 2.74989 16.8182V8.73616C2.74989 5.21116 5.01189 2.84216 8.37889 2.84216H15.6469C16.0609 2.84216 16.3969 3.17816 16.3969 3.59216C16.3969 4.00616 16.0609 4.34216 15.6469 4.34216H8.37889C5.87089 4.34216 4.24989 6.06616 4.24989 8.73616V16.8182C4.24989 19.5232 5.83189 21.2032 8.37889 21.2032H16.9829C19.4909 21.2032 21.1119 19.4822 21.1119 16.8182V9.77916C21.1119 9.36516 21.4479 9.02916 21.8619 9.02916C22.2759 9.02916 22.6119 9.36516 22.6119 9.77916V16.8182C22.6119 20.3382 20.3499 22.7032 16.9829 22.7032Z" fill="#9E9E9E"/>
    </g>
    </svg>
    