<svg width="25" height="24" viewBox="0 0 25 24" fill="none" xmlns="http://www.w3.org/2000/svg">
    <path fill-rule="evenodd" clip-rule="evenodd" d="M17.9298 4.41C17.9298 3.08 19.0098 2 20.3398 2C21.6698 2 22.7498 3.08 22.7498 4.41C22.7498 5.74 21.6698 6.82 20.3398 6.82C19.0098 6.82 17.9298 5.74 17.9298 4.41ZM14.0797 14.7593L16.9697 11.0303L16.9297 11.0503C17.0897 10.8303 17.1197 10.5503 17.0097 10.3003C16.9007 10.0503 16.6597 9.8803 16.4007 9.8603C16.1297 9.8303 15.8607 9.9503 15.6997 10.1703L13.2807 13.3003L10.5097 11.1203C10.3397 10.9903 10.1397 10.9393 9.93969 10.9603C9.74069 10.9903 9.56069 11.0993 9.43969 11.2593L6.48069 15.1103L6.41969 15.2003C6.24969 15.5193 6.32969 15.9293 6.62969 16.1503C6.76969 16.2403 6.91969 16.3003 7.08969 16.3003C7.32069 16.3103 7.53969 16.1893 7.67969 16.0003L10.1897 12.7693L13.0397 14.9103L13.1297 14.9693C13.4497 15.1393 13.8497 15.0603 14.0797 14.7593ZM16.1997 3.7803C16.1597 4.0303 16.1397 4.2803 16.1397 4.5303C16.1397 6.7803 17.9597 8.5993 20.1997 8.5993C20.4497 8.5993 20.6897 8.5703 20.9397 8.5303V16.5993C20.9397 19.9903 18.9397 22.0003 15.5397 22.0003H8.15069C4.74969 22.0003 2.74969 19.9903 2.74969 16.5993V9.2003C2.74969 5.8003 4.74969 3.7803 8.15069 3.7803H16.1997Z" fill="#25388D"/>
    </svg>
    