<svg width="128" height="128" viewBox="0 0 128 128" fill="none"
    xmlns="http://www.w3.org/2000/svg">
    <g opacity="0.1">
        <path d="M96 57.3333C93.8133 57.3333 92 55.52 92 53.3333V42.6666C92 25.8666 87.2533 14.6666 64 14.6666C40.7467 14.6666 36 25.8666 36 42.6666V53.3333C36 55.52 34.1867 57.3333 32 57.3333C29.8133 57.3333 28 55.52 28 53.3333V42.6666C28 27.2 31.7333 6.66663 64 6.66663C96.2667 6.66663 100 27.2 100 42.6666V53.3333C100 55.52 98.1867 57.3333 96 57.3333Z" fill="#292D32"/>
        <path d="M64.0001 102.667C54.4534 102.667 46.6667 94.88 46.6667 85.3333C46.6667 75.7867 54.4534 68 64.0001 68C73.5467 68 81.3334 75.7867 81.3334 85.3333C81.3334 94.88 73.5467 102.667 64.0001 102.667ZM64.0001 76C58.8801 76 54.6667 80.2133 54.6667 85.3333C54.6667 90.4533 58.8801 94.6667 64.0001 94.6667C69.1201 94.6667 73.3334 90.4533 73.3334 85.3333C73.3334 80.2133 69.1201 76 64.0001 76Z" fill="#292D32"/>
        <path d="M90.6668 121.333H37.3334C13.8134 121.333 6.66675 114.187 6.66675 90.6667V80C6.66675 56.48 13.8134 49.3334 37.3334 49.3334H90.6668C114.187 49.3334 121.333 56.48 121.333 80V90.6667C121.333 114.187 114.187 121.333 90.6668 121.333ZM37.3334 57.3334C18.2401 57.3334 14.6667 60.96 14.6667 80V90.6667C14.6667 109.707 18.2401 113.333 37.3334 113.333H90.6668C109.76 113.333 113.333 109.707 113.333 90.6667V80C113.333 60.96 109.76 57.3334 90.6668 57.3334H37.3334Z" fill="#292D32"/>
    </g>
</svg>
    