<svg width="20" height="20" viewBox="0 0 20 20" fill="none"
    xmlns="http://www.w3.org/2000/svg">
    <path d="M14.5416 18.9583C13.6 18.9583 12.6083 18.7333 11.5833 18.3C10.5833 17.875 9.57496 17.2916 8.59163 16.5833C7.61663 15.8666 6.67496 15.0666 5.78329 14.1916C4.89996 13.3 4.09996 12.3583 3.39163 11.3916C2.67496 10.3916 2.09996 9.39163 1.69163 8.42496C1.25829 7.39163 1.04163 6.39163 1.04163 5.44996C1.04163 4.79996 1.15829 4.18329 1.38329 3.60829C1.61663 3.01663 1.99163 2.46663 2.49996 1.99163C3.14163 1.35829 3.87496 1.04163 4.65829 1.04163C4.98329 1.04163 5.31663 1.11663 5.59996 1.24996C5.92496 1.39996 6.19996 1.62496 6.39996 1.92496L8.33329 4.64996C8.50829 4.89163 8.64163 5.12496 8.73329 5.35829C8.84163 5.60829 8.89996 5.85829 8.89996 6.09996C8.89996 6.41663 8.80829 6.72496 8.63329 7.01663C8.50829 7.24163 8.31663 7.48329 8.07496 7.72496L7.50829 8.31663C7.51663 8.34163 7.52496 8.35829 7.53329 8.37496C7.63329 8.54996 7.83329 8.84996 8.21663 9.29996C8.62496 9.76663 9.00829 10.1916 9.39163 10.5833C9.88329 11.0666 10.2916 11.45 10.675 11.7666C11.15 12.1666 11.4583 12.3666 11.6416 12.4583L11.625 12.5L12.2333 11.9C12.4916 11.6416 12.7416 11.45 12.9833 11.325C13.4416 11.0416 14.025 10.9916 14.6083 11.2333C14.825 11.325 15.0583 11.45 15.3083 11.625L18.075 13.5916C18.3833 13.8 18.6083 14.0666 18.7416 14.3833C18.8666 14.7 18.925 14.9916 18.925 15.2833C18.925 15.6833 18.8333 16.0833 18.6583 16.4583C18.4833 16.8333 18.2666 17.1583 17.9916 17.4583C17.5166 17.9833 17 18.3583 16.4 18.6C15.825 18.8333 15.2 18.9583 14.5416 18.9583ZM4.65829 2.29163C4.19996 2.29163 3.77496 2.49163 3.36663 2.89163C2.98329 3.24996 2.71663 3.64163 2.54996 4.06663C2.37496 4.49996 2.29163 4.95829 2.29163 5.44996C2.29163 6.22496 2.47496 7.06663 2.84163 7.93329C3.21663 8.81663 3.74163 9.73329 4.40829 10.65C5.07496 11.5666 5.83329 12.4583 6.66663 13.3C7.49996 14.125 8.39996 14.8916 9.32496 15.5666C10.225 16.225 11.15 16.7583 12.0666 17.1416C13.4916 17.75 14.825 17.8916 15.925 17.4333C16.35 17.2583 16.725 16.9916 17.0666 16.6083C17.2583 16.4 17.4083 16.175 17.5333 15.9083C17.6333 15.7 17.6833 15.4833 17.6833 15.2666C17.6833 15.1333 17.6583 15 17.5916 14.85C17.5666 14.8 17.5166 14.7083 17.3583 14.6L14.5916 12.6333C14.425 12.5166 14.275 12.4333 14.1333 12.375C13.95 12.3 13.875 12.225 13.5916 12.4C13.425 12.4833 13.275 12.6083 13.1083 12.775L12.475 13.4C12.15 13.7166 11.65 13.7916 11.2666 13.65L11.0416 13.55C10.7 13.3666 10.3 13.0833 9.85829 12.7083C9.45829 12.3666 9.02496 11.9666 8.49996 11.45C8.09163 11.0333 7.68329 10.5916 7.25829 10.1C6.86663 9.64163 6.58329 9.24996 6.40829 8.92496L6.30829 8.67496C6.25829 8.48329 6.24163 8.37496 6.24163 8.25829C6.24163 7.95829 6.34996 7.69163 6.55829 7.48329L7.18329 6.83329C7.34996 6.66663 7.47496 6.50829 7.55829 6.36663C7.62496 6.25829 7.64996 6.16663 7.64996 6.08329C7.64996 6.01663 7.62496 5.91663 7.58329 5.81663C7.52496 5.68329 7.43329 5.53329 7.31663 5.37496L5.38329 2.64163C5.29996 2.52496 5.19996 2.44163 5.07496 2.38329C4.94163 2.32496 4.79996 2.29163 4.65829 2.29163ZM11.625 12.5083L11.4916 13.075L11.7166 12.4916C11.675 12.4833 11.6416 12.4916 11.625 12.5083Z" fill="#061D23"/>
</svg>
