<svg width="128" height="128" viewBox="0 0 128 128" fill="none"
    xmlns="http://www.w3.org/2000/svg">
    <g opacity="0.1">
        <path d="M10.6667 52C8.48008 52 6.66675 50.1866 6.66675 48V34.6666C6.66675 19.2 19.2534 6.66663 34.6667 6.66663H48.0001C50.1867 6.66663 52.0001 8.47996 52.0001 10.6666C52.0001 12.8533 50.1867 14.6666 48.0001 14.6666H34.6667C23.6267 14.6666 14.6667 23.6266 14.6667 34.6666V48C14.6667 50.1866 12.8534 52 10.6667 52Z" fill="white"/>
        <path d="M117.333 52C115.147 52 113.333 50.1866 113.333 48V34.6666C113.333 23.6266 104.373 14.6666 93.3333 14.6666H80C77.8133 14.6666 76 12.8533 76 10.6666C76 8.47996 77.8133 6.66663 80 6.66663H93.3333C108.747 6.66663 121.333 19.2 121.333 34.6666V48C121.333 50.1866 119.52 52 117.333 52Z" fill="white"/>
        <path d="M93.3333 121.333H85.3333C83.1466 121.333 81.3333 119.52 81.3333 117.333C81.3333 115.147 83.1466 113.333 85.3333 113.333H93.3333C104.373 113.333 113.333 104.373 113.333 93.3334V85.3334C113.333 83.1467 115.147 81.3334 117.333 81.3334C119.52 81.3334 121.333 83.1467 121.333 85.3334V93.3334C121.333 108.8 108.747 121.333 93.3333 121.333Z" fill="white"/>
        <path d="M48.0001 121.333H34.6667C19.2534 121.333 6.66675 108.8 6.66675 93.3333V80C6.66675 77.8133 8.48008 76 10.6667 76C12.8534 76 14.6667 77.8133 14.6667 80V93.3333C14.6667 104.373 23.6267 113.333 34.6667 113.333H48.0001C50.1867 113.333 52.0001 115.147 52.0001 117.333C52.0001 119.52 50.1867 121.333 48.0001 121.333Z" fill="white"/>
        <path d="M74.6666 97.3333H53.3333C40.4266 97.3333 33.3333 90.24 33.3333 77.3333V50.6666C33.3333 37.76 40.4266 30.6666 53.3333 30.6666H74.6666C87.5732 30.6666 94.6666 37.76 94.6666 50.6666V77.3333C94.6666 90.24 87.5732 97.3333 74.6666 97.3333ZM53.3333 38.6666C44.9066 38.6666 41.3333 42.24 41.3333 50.6666V77.3333C41.3333 85.76 44.9066 89.3333 53.3333 89.3333H74.6666C83.0933 89.3333 86.6666 85.76 86.6666 77.3333V50.6666C86.6666 42.24 83.0933 38.6666 74.6666 38.6666H53.3333Z" fill="white"/>
        <path d="M101.333 68H26.6667C24.4801 68 22.6667 66.1867 22.6667 64C22.6667 61.8133 24.4801 60 26.6667 60H101.333C103.52 60 105.333 61.8133 105.333 64C105.333 66.1867 103.52 68 101.333 68Z" fill="white"/>
    </g>
</svg>
