<svg width="20" height="21" viewBox="0 0 20 21" fill="none"
    xmlns="http://www.w3.org/2000/svg">
    <mask id="mask0_301_1249" style="mask-type:luminance" maskUnits="userSpaceOnUse" x="1" y="2" width="17" height="17">
        <path fill-rule="evenodd" clip-rule="evenodd" d="M1.66667 2.16675H17.8973V18.3976H1.66667V2.16675Z" fill="white"/>
    </mask>
    <g mask="url(#mask0_301_1249)">
        <path fill-rule="evenodd" clip-rule="evenodd" d="M9.78233 3.41675C5.9965 3.41675 2.9165 6.49591 2.9165 10.2817C2.9165 14.0676 5.9965 17.1476 9.78233 17.1476C13.5673 17.1476 16.6473 14.0676 16.6473 10.2817C16.6473 6.49591 13.5673 3.41675 9.78233 3.41675ZM9.78233 18.3976C5.30733 18.3976 1.6665 14.7567 1.6665 10.2817C1.6665 5.80675 5.30733 2.16675 9.78233 2.16675C14.2573 2.16675 17.8973 5.80675 17.8973 10.2817C17.8973 14.7567 14.2573 18.3976 9.78233 18.3976Z" fill="#BDBDBD"/>
    </g>
    <mask id="mask1_301_1249" style="mask-type:luminance" maskUnits="userSpaceOnUse" x="14" y="15" width="5" height="5">
        <path fill-rule="evenodd" clip-rule="evenodd" d="M14.3666 15.2559H18.5533V19.4348H14.3666V15.2559Z" fill="white"/>
    </mask>
    <g mask="url(#mask1_301_1249)">
        <path fill-rule="evenodd" clip-rule="evenodd" d="M17.9285 19.4348C17.7693 19.4348 17.6093 19.374 17.4868 19.2523L14.5502 16.324C14.306 16.0798 14.3052 15.684 14.5493 15.4398C14.7927 15.194 15.1885 15.1957 15.4335 15.4382L18.3702 18.3673C18.6143 18.6115 18.6152 19.0065 18.371 19.2507C18.2493 19.374 18.0885 19.4348 17.9285 19.4348Z" fill="#BDBDBD"/>
    </g>
</svg>
