<svg width="80" height="80" viewBox="0 0 80 80" fill="none" xmlns="http://www.w3.org/2000/svg">
    <path d="M1.5 40C1.5 18.737 18.737 1.5 40 1.5C61.263 1.5 78.5 18.737 78.5 40C78.5 61.263 61.263 78.5 40 78.5C18.737 78.5 1.5 61.263 1.5 40Z" fill="#A0E86F"/>
    <path d="M55.6567 28.8234C55.4398 28.6047 55.1817 28.4311 54.8974 28.3126C54.613 28.1942 54.3081 28.1332 54 28.1332C53.692 28.1332 53.387 28.1942 53.1027 28.3126C52.8183 28.4311 52.5603 28.6047 52.3434 28.8234L34.96 46.23L27.6567 38.9034C27.4315 38.6858 27.1656 38.5148 26.8743 38.3999C26.583 38.2851 26.2719 38.2288 25.9588 38.2342C25.6457 38.2397 25.3367 38.3067 25.0496 38.4315C24.7624 38.5563 24.5026 38.7365 24.285 38.9617C24.0675 39.1869 23.8964 39.4528 23.7816 39.7441C23.6668 40.0354 23.6105 40.3465 23.6159 40.6596C23.6213 40.9727 23.6883 41.2817 23.8132 41.5688C23.938 41.856 24.1181 42.1158 24.3434 42.3334L33.3034 51.2934C33.5203 51.5121 33.7783 51.6857 34.0627 51.8041C34.347 51.9226 34.652 51.9836 34.96 51.9836C35.2681 51.9836 35.573 51.9226 35.8574 51.8041C36.1417 51.6857 36.3998 51.5121 36.6167 51.2934L55.6567 32.2534C55.8935 32.0349 56.0826 31.7697 56.2118 31.4745C56.3411 31.1794 56.4079 30.8606 56.4079 30.5384C56.4079 30.2161 56.3411 29.8974 56.2118 29.6022C56.0826 29.3071 55.8935 29.0419 55.6567 28.8234Z" fill="#212121"/>
    <path d="M1.5 40C1.5 18.737 18.737 1.5 40 1.5C61.263 1.5 78.5 18.737 78.5 40C78.5 61.263 61.263 78.5 40 78.5C18.737 78.5 1.5 61.263 1.5 40Z" stroke="#35383F" stroke-width="3"/>
    </svg>
    