<svg width="16" height="16" viewBox="0 0 16 16" fill="none"
    xmlns="http://www.w3.org/2000/svg">
    <path d="M9.99992 15.1667H5.99992C2.37992 15.1667 0.833252 13.62 0.833252 10V6.00004C0.833252 2.38004 2.37992 0.833374 5.99992 0.833374H9.99992C13.6199 0.833374 15.1666 2.38004 15.1666 6.00004V10C15.1666 13.62 13.6199 15.1667 9.99992 15.1667ZM5.99992 1.83337C2.92659 1.83337 1.83325 2.92671 1.83325 6.00004V10C1.83325 13.0734 2.92659 14.1667 5.99992 14.1667H9.99992C13.0733 14.1667 14.1666 13.0734 14.1666 10V6.00004C14.1666 2.92671 13.0733 1.83337 9.99992 1.83337H5.99992Z" fill="white"/>
    <path d="M10.5 6.5H5.5C5.22667 6.5 5 6.27333 5 6C5 5.72667 5.22667 5.5 5.5 5.5H10.5C10.7733 5.5 11 5.72667 11 6C11 6.27333 10.7733 6.5 10.5 6.5Z" fill="white"/>
    <path d="M10.5 10.5H5.5C5.22667 10.5 5 10.2733 5 10C5 9.72667 5.22667 9.5 5.5 9.5H10.5C10.7733 9.5 11 9.72667 11 10C11 10.2733 10.7733 10.5 10.5 10.5Z" fill="white"/>
</svg>
