<svg width="115" height="115" viewBox="0 0 115 115" fill="none" xmlns="http://www.w3.org/2000/svg">
    <g opacity="0.1">
    <path d="M71.3488 87.3041H29.23C26.7384 87.3041 24.3904 87.0647 22.2821 86.5855C21.18 86.4418 19.8384 86.0583 18.4488 85.5312C12.0759 83.1353 4.55298 77.2417 4.55298 62.5792V37.902C4.55298 22.2333 13.5613 13.2251 29.23 13.2251H71.3488C84.5738 13.2251 93.1029 19.55 95.4029 31.05C95.8342 33.1583 96.0259 35.4103 96.0259 37.902V62.5792C96.0259 78.3438 87.0655 87.3041 71.3488 87.3041ZM29.2778 20.5085C17.4903 20.5085 11.7883 26.2104 11.7883 37.9979V62.6751C11.7883 71.2522 14.8071 76.5231 20.9884 78.871C21.9467 79.2064 22.8571 79.4458 23.7196 79.5896C25.5405 79.9729 27.3133 80.1645 29.2778 80.1645H71.3966C83.1841 80.1645 88.8862 74.4626 88.8862 62.6751V37.9979C88.8862 35.9854 88.7426 34.2125 88.4071 32.5833C86.778 24.4375 81.2196 20.5085 71.3966 20.5085H29.2778Z" fill="white"/>
    <path d="M85.7234 101.679H43.6046C39.5317 101.679 35.89 101.104 32.7754 99.906C25.7317 97.2706 21.1316 91.7123 19.5504 83.7581C19.3108 82.5602 19.6942 81.3144 20.5567 80.4998C21.4192 79.6373 22.6651 79.3019 23.863 79.5894C25.4442 79.9248 27.2171 80.1164 29.2296 80.1164H71.3484C83.1359 80.1164 88.838 74.4145 88.838 62.627V37.9498C88.838 35.9373 88.6942 34.1644 88.3588 32.5352C88.1192 31.3373 88.5026 30.1394 89.3172 29.2769C90.1797 28.4144 91.3776 28.031 92.5755 28.3185C104.075 30.6664 110.4 39.1956 110.4 52.3248V77.002C110.4 92.7187 101.44 101.679 85.7234 101.679ZM28.3672 87.3039C29.9005 90.0831 32.2005 92.0479 35.363 93.1979C37.663 94.0604 40.442 94.4914 43.6525 94.4914H85.7712C97.5587 94.4914 103.261 88.7895 103.261 77.002V52.3248C103.261 44.754 100.913 39.7228 96.0733 37.0873C96.0733 37.3748 96.0733 37.6623 96.0733 37.9498V62.627C96.0733 78.2957 87.065 87.3039 71.3962 87.3039H29.2775C28.942 87.3039 28.6547 87.3039 28.3672 87.3039Z" fill="white"/>
    <path d="M50.3119 66.5564C41.3515 66.5564 34.0681 59.273 34.0681 50.3125C34.0681 41.3521 41.3515 34.0687 50.3119 34.0687C59.2723 34.0687 66.5558 41.3521 66.5558 50.3125C66.5558 59.273 59.2723 66.5564 50.3119 66.5564ZM50.3119 41.2562C45.3286 41.2562 41.2556 45.3292 41.2556 50.3125C41.2556 55.2959 45.3286 59.3689 50.3119 59.3689C55.2953 59.3689 59.3683 55.2959 59.3683 50.3125C59.3683 45.3292 55.2953 41.2562 50.3119 41.2562Z" fill="white"/>
    <path d="M22.9055 64.4483C20.9409 64.4483 19.3118 62.8191 19.3118 60.8546V39.7711C19.3118 37.8065 20.9409 36.1774 22.9055 36.1774C24.8701 36.1774 26.4993 37.8065 26.4993 39.7711V60.8546C26.4993 62.8191 24.918 64.4483 22.9055 64.4483Z" fill="#F0F0F0"/>
    <path d="M77.6729 64.4483C75.7083 64.4483 74.0791 62.8191 74.0791 60.8546V39.7711C74.0791 37.8065 75.7083 36.1774 77.6729 36.1774C79.6374 36.1774 81.2666 37.8065 81.2666 39.7711V60.8546C81.2666 62.8191 79.6854 64.4483 77.6729 64.4483Z" fill="#F0F0F0"/>
    </g>
    </svg>
    