<!-- <svg width="80" height="80" viewBox="0 0 80 80" fill="none" xmlns="http://www.w3.org/2000/svg">
    <g opacity="0.1">
        <path d="M40.4001 45.1001C40.3334 45.1001 40.2334 45.1001 40.1668 45.1001C40.0668 45.1001 39.9334 45.1001 39.8334 45.1001C32.2668 44.8667 26.6001 38.9667 26.6001 31.7001C26.6001 24.3001 32.6334 18.2667 40.0334 18.2667C47.4334 18.2667 53.4668 24.3001 53.4668 31.7001C53.4334 39.0001 47.7334 44.8667 40.5001 45.1001C40.4334 45.1001 40.4334 45.1001 40.4001 45.1001ZM40.0001 23.2334C35.3334 23.2334 31.5668 27.0334 31.5668 31.6667C31.5668 36.2334 35.1334 39.9334 39.6668 40.1001C39.7668 40.0667 40.1001 40.0667 40.4334 40.1001C44.9001 39.8667 48.4001 36.2001 48.4334 31.6667C48.4334 27.0334 44.6668 23.2334 40.0001 23.2334Z" fill="white"/>
        <path d="M40.0001 75.8334C31.0334 75.8334 22.4668 72.5001 15.8334 66.4334C15.2334 65.9001 14.9668 65.1001 15.0334 64.3334C15.4668 60.3667 17.9334 56.6667 22.0334 53.9334C31.9668 47.3334 48.0668 47.3334 57.9668 53.9334C62.0668 56.7001 64.5334 60.3667 64.9668 64.3334C65.0668 65.1334 64.7668 65.9001 64.1668 66.4334C57.5334 72.5001 48.9668 75.8334 40.0001 75.8334ZM20.2668 63.6667C25.8001 68.3001 32.7668 70.8334 40.0001 70.8334C47.2334 70.8334 54.2001 68.3001 59.7334 63.6667C59.1334 61.6334 57.5334 59.6667 55.1668 58.0667C46.9668 52.6001 33.0668 52.6001 24.8001 58.0667C22.4334 59.6667 20.8668 61.6334 20.2668 63.6667Z" fill="white"/>
        <path d="M40.0001 75.8333C20.2334 75.8333 4.16675 59.7666 4.16675 40C4.16675 20.2333 20.2334 4.16663 40.0001 4.16663C59.7668 4.16663 75.8334 20.2333 75.8334 40C75.8334 59.7666 59.7668 75.8333 40.0001 75.8333ZM40.0001 9.16663C23.0001 9.16663 9.16675 23 9.16675 40C9.16675 57 23.0001 70.8333 40.0001 70.8333C57.0001 70.8333 70.8334 57 70.8334 40C70.8334 23 57.0001 9.16663 40.0001 9.16663Z" fill="white"/>
    </g>
</svg> -->


<svg width="128" height="128" viewBox="0 0 128 128" fill="none"
    xmlns="http://www.w3.org/2000/svg">
    <g opacity="0.1">
        <path d="M63.9999 68C47.0933 68 33.3333 54.24 33.3333 37.3333C33.3333 20.4266 47.0933 6.66663 63.9999 6.66663C80.9066 6.66663 94.6666 20.4266 94.6666 37.3333C94.6666 54.24 80.9066 68 63.9999 68ZM63.9999 14.6666C51.5199 14.6666 41.3333 24.8533 41.3333 37.3333C41.3333 49.8133 51.5199 60 63.9999 60C76.4799 60 86.6666 49.8133 86.6666 37.3333C86.6666 24.8533 76.4799 14.6666 63.9999 14.6666Z" fill="#292D32"/>
        <path d="M109.814 121.333C107.627 121.333 105.814 119.52 105.814 117.333C105.814 98.9333 87.0408 84 64.0008 84C40.9608 84 22.1875 98.9333 22.1875 117.333C22.1875 119.52 20.3742 121.333 18.1875 121.333C16.0008 121.333 14.1875 119.52 14.1875 117.333C14.1875 94.56 36.5341 76 64.0008 76C91.4675 76 113.814 94.56 113.814 117.333C113.814 119.52 112.001 121.333 109.814 121.333Z" fill="#292D32"/>
    </g>
</svg>
    