<svg width="128" height="128" viewBox="0 0 128 128" fill="none" xmlns="http://www.w3.org/2000/svg">
    <g opacity="0.1">
    <path d="M23.8993 75.8334C15.9659 75.8334 9.46606 70.0668 9.46606 62.9668V56.1666C9.46606 54.8 10.5994 53.6666 11.9661 53.6666C13.3327 53.6666 14.4661 54.8 14.4661 56.1666C14.4661 60.3333 18.4993 63.4666 23.8993 63.4666C29.2993 63.4666 33.3326 60.3333 33.3326 56.1666C33.3326 54.8 34.466 53.6666 35.8326 53.6666C37.1993 53.6666 38.3326 54.8 38.3326 56.1666V62.9668C38.3326 70.0668 31.8659 75.8334 23.8993 75.8334ZM15.3326 66.2334C16.7992 68.9667 20.0993 70.8334 23.8993 70.8334C27.6993 70.8334 30.9993 68.9334 32.4659 66.2334C30.0993 67.6667 27.1659 68.5 23.8993 68.5C20.6326 68.5 17.6992 67.6667 15.3326 66.2334Z" fill="white"/>
    <path d="M23.8993 59.3331C18.4326 59.3331 13.5327 56.8331 11.0994 52.8664C10.0327 51.1331 9.46606 49.0997 9.46606 47.0331C9.46606 43.5331 10.9994 40.2664 13.7994 37.833C19.1994 33.0997 28.4993 33.0999 33.9326 37.7999C36.7326 40.2665 38.2993 43.5331 38.2993 47.0331C38.2993 49.0997 37.7326 51.1331 36.666 52.8664C34.266 56.8331 29.3659 59.3331 23.8993 59.3331ZM23.8993 39.1664C21.2993 39.1664 18.8993 40.033 17.0993 41.5997C15.3993 43.0664 14.4661 44.9997 14.4661 47.0331C14.4661 48.1997 14.7659 49.2665 15.3659 50.2665C16.8993 52.7998 20.1659 54.3664 23.8993 54.3664C27.6326 54.3664 30.8992 52.7999 32.3992 50.2999C32.9992 49.3332 33.2993 48.2331 33.2993 47.0664C33.2993 45.0331 32.366 43.0997 30.666 41.5997C28.8994 40.033 26.4993 39.1664 23.8993 39.1664Z" fill="white"/>
    <path d="M23.8993 68.4999C15.6659 68.4999 9.46606 63.1999 9.46606 56.1999V47.0332C9.46606 39.9332 15.9326 34.1666 23.8993 34.1666C27.6659 34.1666 31.266 35.4667 33.966 37.8C36.766 40.2667 38.3326 43.5332 38.3326 47.0332V56.1999C38.3326 63.1999 32.1326 68.4999 23.8993 68.4999ZM23.8993 39.1666C18.6993 39.1666 14.4661 42.6999 14.4661 47.0332V56.1999C14.4661 60.3666 18.4993 63.4999 23.8993 63.4999C29.2993 63.4999 33.3326 60.3666 33.3326 56.1999V47.0332C33.3326 44.9999 32.3994 43.0665 30.6994 41.5665C28.8994 40.0332 26.4993 39.1666 23.8993 39.1666Z" fill="#F5F5F5"/>
    <path d="M63.4662 49.3331C58.4329 49.3331 54.1663 45.5998 53.7663 40.7998C53.4996 38.0331 54.4997 35.3332 56.4997 33.3665C58.1663 31.6332 60.5329 30.6665 63.0329 30.6665H69.9996C73.2996 30.7665 75.833 33.3664 75.833 36.5664V43.4332C75.833 46.6332 73.2997 49.2331 70.0997 49.3331H63.4662ZM69.8995 35.6665H63.0662C61.8996 35.6665 60.833 36.0998 60.0663 36.8998C59.0997 37.8332 58.633 39.0997 58.7663 40.3664C58.933 42.5664 61.0662 44.3331 63.4662 44.3331H69.9996C70.433 44.3331 70.833 43.9332 70.833 43.4332V36.5664C70.833 36.0664 70.4329 35.6998 69.8995 35.6665Z" fill="white"/>
    <path d="M53.3341 70.8333H45.0007C43.6341 70.8333 42.5007 69.7 42.5007 68.3333C42.5007 66.9666 43.6341 65.8333 45.0007 65.8333H53.3341C61.9341 65.8333 67.5007 60.2666 67.5007 51.6666V49.3333H63.4673C58.434 49.3333 54.1674 45.5999 53.7674 40.7999C53.5007 38.0333 54.5008 35.3333 56.5008 33.3667C58.1674 31.6333 60.534 30.6667 63.034 30.6667H67.4674V28.3333C67.4674 20.5333 62.9008 15.1666 55.5008 14.2999C54.7008 14.1666 54.0007 14.1666 53.3007 14.1666H23.3007C22.5007 14.1666 21.734 14.2333 20.9673 14.3333C13.634 15.2666 9.13403 20.6 9.13403 28.3333V35C9.13403 36.3666 8.0007 37.5 6.63403 37.5C5.26737 37.5 4.13403 36.3666 4.13403 35V28.3333C4.13403 18.0666 10.4675 10.6333 20.3008 9.39998C21.2008 9.26665 22.234 9.16663 23.3007 9.16663H53.3007C54.1007 9.16663 55.134 9.19995 56.2007 9.36662C66.034 10.5 72.4674 17.9666 72.4674 28.3333V33.1667C72.4674 34.5333 71.334 35.6667 69.9674 35.6667H63.034C61.8673 35.6667 60.8008 36.1 60.0341 36.9C59.0674 37.8333 58.6007 39.0999 58.734 40.3666C58.9007 42.5666 61.0342 44.3333 63.4342 44.3333H70.0007C71.3674 44.3333 72.5007 45.4666 72.5007 46.8333V51.6666C72.5007 63.1333 64.8007 70.8333 53.3341 70.8333Z" fill="white"/>
    </g>
    </svg>
    